HIERARCHY
ROOT hip
{
  OFFSET 0 0 0
  CHANNELS 6 Xposition Yposition Zposition Zrotation Yrotation Xrotation
  JOINT abdomen
  {
    OFFSET 0 20.6881 -0.73152
    CHANNELS 3 Zrotation Xrotation Yrotation
    JOINT chest
    {
      OFFSET 0 11.7043 -0.48768
      CHANNELS 3 Zrotation Xrotation Yrotation
      JOINT neck
      {
        OFFSET 0 22.1894 -2.19456
        CHANNELS 3 Zrotation Xrotation Yrotation
        JOINT head
        {
          OFFSET -0.24384 7.07133 1.2192
          CHANNELS 3 Zrotation Xrotation Yrotation
          JOINT leftEye
          {
            OFFSET 4.14528 8.04674 8.04672
            CHANNELS 3 Zrotation Xrotation Yrotation
            End Site
            {
              OFFSET 1 0 0
            }
          }
          JOINT rightEye
          {
            OFFSET -3.6576 8.04674 8.04672
            CHANNELS 3 Zrotation Xrotation Yrotation
            End Site
            {
              OFFSET 1 0 0
            }
          }
        }
      }
      JOINT rCollar
      {
        OFFSET -2.68224 19.2634 -4.8768
        CHANNELS 3 Zrotation Xrotation Yrotation
        JOINT rShldr
        {
          OFFSET -8.77824 -1.95073 1.46304
          CHANNELS 3 Zrotation Xrotation Yrotation
          JOINT rForeArm
          {
            OFFSET -28.1742 -1.7115 0.48768
            CHANNELS 3 Zrotation Xrotation Yrotation
            JOINT rHand
            {
              OFFSET -22.5879 0.773209 7.07136
              CHANNELS 3 Zrotation Xrotation Yrotation
              JOINT rThumb1
              {
                OFFSET -1.2192 -0.487915 3.41376
                CHANNELS 3 Zrotation Xrotation Yrotation
                JOINT rThumb2
                {
                  OFFSET -3.37035 -0.52449 3.41376
                  CHANNELS 3 Zrotation Xrotation Yrotation
                  End Site
                  {
                    OFFSET -1.78271 -1.18214 1.43049
                  }
                }
              }
              JOINT rIndex1
              {
                OFFSET -7.75947 0.938293 5.60832
                CHANNELS 3 Zrotation Xrotation Yrotation
                JOINT rIndex2
                {
                  OFFSET -2.54057 -0.884171 1.56538
                  CHANNELS 3 Zrotation Xrotation Yrotation
                  End Site
                  {
                    OFFSET -1.62519 -0.234802 1.16502
                  }
                }
              }
              JOINT rMid1
              {
                OFFSET -8.24714 1.18213 3.41376
                CHANNELS 3 Zrotation Xrotation Yrotation
                JOINT rMid2
                {
                  OFFSET -3.10165 -0.590103 1.0647
                  CHANNELS 3 Zrotation Xrotation Yrotation
                  End Site
                  {
                    OFFSET -2.48547 -0.328903 0.83742
                  }
                }
              }
              JOINT rRing1
              {
                OFFSET -8.82822 0.546677 1.51678
                CHANNELS 3 Zrotation Xrotation Yrotation
                JOINT rRing2
                {
                  OFFSET -2.60934 -0.819778 -0.0198488
                  CHANNELS 3 Zrotation Xrotation Yrotation
                  End Site
                  {
                    OFFSET -2.33842 -0.294052 0.168128
                  }
                }
              }
              JOINT rPinky1
              {
                OFFSET -8.27202 -0.0477905 -0.4584
                CHANNELS 3 Zrotation Xrotation Yrotation
                JOINT rPinky2
                {
                  OFFSET -1.82734 -0.647385 -0.700984
                  CHANNELS 3 Zrotation Xrotation Yrotation
                  End Site
                  {
                    OFFSET -1.69225 -0.51767 -0.607171
                  }
                }
              }
            }
          }
        }
      }
      JOINT lCollar
      {
        OFFSET 2.68224 19.2634 -4.8768
        CHANNELS 3 Zrotation Xrotation Yrotation
        JOINT lShldr
        {
          OFFSET 8.77824 -1.95073 1.46304
          CHANNELS 3 Zrotation Xrotation Yrotation
          JOINT lForeArm
          {
            OFFSET 28.1742 -1.7115 0.48768
            CHANNELS 3 Zrotation Xrotation Yrotation
            JOINT lHand
            {
              OFFSET 22.5879 0.773209 7.07136
              CHANNELS 3 Zrotation Xrotation Yrotation
              JOINT lThumb1
              {
                OFFSET 1.2192 -0.487915 3.41376
                CHANNELS 3 Zrotation Xrotation Yrotation
                JOINT lThumb2
                {
                  OFFSET 3.37035 -0.52449 3.41376
                  CHANNELS 3 Zrotation Xrotation Yrotation
                  End Site
                  {
                    OFFSET 1.78271 -1.18214 1.43049
                  }
                }
              }
              JOINT lIndex1
              {
                OFFSET 7.75947 0.938293 5.60832
                CHANNELS 3 Zrotation Xrotation Yrotation
                JOINT lIndex2
                {
                  OFFSET 2.54057 -0.884171 1.56538
                  CHANNELS 3 Zrotation Xrotation Yrotation
                  End Site
                  {
                    OFFSET 1.62519 -0.234802 1.16502
                  }
                }
              }
              JOINT lMid1
              {
                OFFSET 8.24714 1.18213 3.41376
                CHANNELS 3 Zrotation Xrotation Yrotation
                JOINT lMid2
                {
                  OFFSET 3.10165 -0.590103 1.0647
                  CHANNELS 3 Zrotation Xrotation Yrotation
                  End Site
                  {
                    OFFSET 2.48547 -0.328903 0.83742
                  }
                }
              }
              JOINT lRing1
              {
                OFFSET 8.82822 0.546677 1.51678
                CHANNELS 3 Zrotation Xrotation Yrotation
                JOINT lRing2
                {
                  OFFSET 2.60934 -0.819778 -0.0198488
                  CHANNELS 3 Zrotation Xrotation Yrotation
                  End Site
                  {
                    OFFSET 2.33842 -0.294052 0.168128
                  }
                }
              }
              JOINT lPinky1
              {
                OFFSET 8.27202 -0.0477905 -0.4584
                CHANNELS 3 Zrotation Xrotation Yrotation
                JOINT lPinky2
                {
                  OFFSET 1.82734 -0.647385 -0.700984
                  CHANNELS 3 Zrotation Xrotation Yrotation
                  End Site
                  {
                    OFFSET 1.69225 -0.51767 -0.607171
                  }
                }
              }
            }
          }
        }
      }
    }
  }
  JOINT rButtock
  {
    OFFSET -8.77824 4.35084 1.2192
    CHANNELS 3 Zrotation Xrotation Yrotation
    JOINT rThigh
    {
      OFFSET 0 -1.70687 -2.19456
      CHANNELS 3 Zrotation Xrotation Yrotation
      JOINT rShin
      {
        OFFSET 0 -36.8199 0.73152
        CHANNELS 3 Zrotation Xrotation Yrotation
        JOINT rFoot
        {
          OFFSET 0.73152 -45.1104 -5.12064
          CHANNELS 3 Zrotation Xrotation Yrotation
          End Site
          {
            OFFSET -1.1221 -3.69964 12.103
          }
        }
      }
    }
  }
  JOINT lButtock
  {
    OFFSET 8.77824 4.35084 1.2192
    CHANNELS 3 Zrotation Xrotation Yrotation
    JOINT lThigh
    {
      OFFSET 0 -1.70687 -2.19456
      CHANNELS 3 Zrotation Xrotation Yrotation
      JOINT lShin
      {
        OFFSET 0 -36.8199 0.73152
        CHANNELS 3 Zrotation Xrotation Yrotation
        JOINT lFoot
        {
          OFFSET -0.73152 -45.1104 -5.12064
          CHANNELS 3 Zrotation Xrotation Yrotation
          End Site
          {
            OFFSET 1.1221 -3.69964 12.103
          }
        }
      }
    }
  }
}
MOTION
Frames:	7
Frame Time:	0.00833333
0.630048 82.4855 50.3499 0.0 0.0 0.0 -4.35895 0.00629236 -0.117456 -1.20159 0.0324761 -0.207681 -2.06275e-13 -1.59028e-15 2.23633e-15 -6.20907e-13 3.18055e-15 6.95436e-15 -0.0 0.0 0.0 -0.0 0.0 0.0 -1.02931e-13 -9.7354e-16 1.2424e-15 -2.16588e-12 -2.07854e-14 1.80894e-14 -3.73087e-11 1.04901e-11 7.91958e-13 -4.27513e-10 -1.48666e-11 4.06475e-12 -1.00835e-09 -9.49002e-12 1.06453e-11 -1.74139e-09 -1.63894e-11 1.8417e-11 -1.00835e-09 -9.49078e-12 1.06421e-11 7.73091 5.47488 0.417314 -1.00835e-09 -9.49028e-12 1.06485e-11 2.90554 0.965183 0.102902 -1.00835e-09 -9.48988e-12 1.06461e-11 10.2786 0.731801 0.0259123 -1.00836e-09 -9.48759e-12 1.06549e-11 2.22167 -0.733487 -0.20892 -1.03116e-13 -9.65775e-16 9.93923e-16 -2.1697e-12 -2.00213e-14 1.63003e-14 -3.74035e-11 -1.18301e-11 8.14222e-13 -4.27447e-10 7.50154e-12 4.05521e-12 -1.00841e-09 -9.39384e-12 1.06358e-11 -1.74146e-09 -1.62176e-11 1.84098e-11 -1.00842e-09 -9.39297e-12 1.06453e-11 -7.73091 5.47488 -0.417314 -1.00841e-09 -9.39407e-12 1.06358e-11 -2.90554 0.965183 -0.102902 -1.00841e-09 -9.39377e-12 1.06374e-11 -10.2786 0.731801 -0.0259123 -1.00841e-09 -9.39297e-12 1.06294e-11 -2.22167 -0.733487 0.20892 -2.03217e-16 0.0 -3.88251e-19 -2.88808 -1.94435 0.0304142 -0.00797323 -2.07874 -0.0650981 -0.422374 4.00217 0.127133 2.03217e-16 0.0 3.88251e-19 -3.7254 -11.2507 0.483801 -0.0143132 14.7725 -0.388796 0.54485 -3.54243 0.0125083
-1.62349 82.2413 48.5199 -9.9174 2.7255 7.7365 -2.0754 -2.07638 0.307249 -1.2514 -2.84504 -0.154358 -2.53072 4.17429 -3.51382 4.46192 -2.9749 -6.62491 -0.0 0.0 0.0 -0.0 0.0 0.0 -2.8173e-14 -1.48864e-13 4.0712e-15 22.7843 2.71859 -2.64021 -3.62811 -1.54615 5.77301 0.242786 10.9704 1.44177 -1.70814e-09 9.91428e-10 -3.00119e-10 -2.95807e-09 1.69151e-09 -4.86713e-10 -1.70814e-09 9.91428e-10 -3.00127e-10 7.73091 5.47488 0.417314 -1.70814e-09 9.91429e-10 -3.00119e-10 2.90554 0.965183 0.102902 -1.70813e-09 9.91429e-10 -3.0012e-10 10.2786 0.731801 0.0259123 -1.70814e-09 9.9143e-10 -3.00112e-10 2.22167 -0.733487 -0.20892 -2.83249e-14 -1.48859e-13 3.82389e-15 -23.3652 4.74829 3.08507 2.67248 -1.01356 -4.36683 -0.14639 8.50502 -1.1483 -3.7852e-11 -2.26395e-10 -1.15433e-09 -9.44578e-11 -4.14236e-10 -2.00813e-09 -3.78574e-11 -2.26397e-10 -1.15432e-09 -7.73091 5.47488 -0.417314 -3.78494e-11 -2.26395e-10 -1.15433e-09 -2.90554 0.965183 -0.102902 -3.78572e-11 -2.26396e-10 -1.15432e-09 -10.2786 0.731801 -0.0259123 -3.78474e-11 -2.26395e-10 -1.15433e-09 -2.22167 -0.733487 0.20892 -2.03217e-16 0.0 -3.88251e-19 -1.32918 -2.78798 6.45681 0.00467879 -1.64254 0.0374612 -1.0236 1.14827 -6.99677 2.03217e-16 0.0 3.88251e-19 -2.02674 -10.7172 -11.1045 -0.0120596 13.8942 -0.282553 1.1977 -7.85592 13.8177
-1.62588 82.241 48.5168 -9.9307 2.7467 7.7507 0.382605 -4.2605 0.760016 -1.30164 -5.89569 -0.0979119 -4.64551 8.53284 -7.28945 8.43175 -5.9851 -13.6843 -0.0 0.0 0.0 -0.0 0.0 0.0 5.47791e-14 -3.11225e-13 7.31155e-15 47.1448 5.54792 -5.45467 -7.12816 -3.1293 11.8918 -0.146292 22.5715 3.15674 -2.50181e-09 2.11639e-09 -6.5967e-10 -4.33823e-09 3.61159e-09 -1.07249e-09 -2.50181e-09 2.11639e-09 -6.59683e-10 7.73091 5.47488 0.417314 -2.50181e-09 2.1164e-09 -6.59673e-10 2.90554 0.965183 0.102902 -2.50181e-09 2.1164e-09 -6.59673e-10 10.2786 0.731801 0.0259123 -2.50182e-09 2.1164e-09 -6.59666e-10 2.22167 -0.733487 -0.20892 5.46616e-14 -3.11223e-13 7.06617e-15 -48.6274 9.71252 6.41554 5.32944 -2.065 -8.98631 0.0858905 17.4935 -2.45072 1.01605e-09 -4.78432e-10 -2.45993e-09 1.69301e-09 -8.75365e-10 -4.27896e-09 1.01604e-09 -4.78437e-10 -2.45992e-09 -7.73091 5.47488 -0.417314 1.01605e-09 -4.78433e-10 -2.45993e-09 -2.90554 0.965183 -0.102902 1.01604e-09 -4.78435e-10 -2.45993e-09 -10.2786 0.731801 -0.0259123 1.01606e-09 -4.78433e-10 -2.45994e-09 -2.22167 -0.733487 0.20892 -2.03217e-16 0.0 -3.88251e-19 0.530277 -3.6131 13.2601 0.0163854 -1.17955 0.145897 -2.42235 -1.78861 -14.5275 2.03217e-16 0.0 3.88251e-19 0.0172467 -9.71227 -23.2894 -0.00600345 12.9655 -0.171138 4.08943 -11.3474 28.7489
-1.62058 82.2398 48.5164 -9.9059 2.7487 7.7529 2.58477 -6.24055 1.16295 -1.33493 -8.60011 -0.0476791 -6.0351 12.3324 -10.7647 11.3491 -8.44685 -20.0748 -0.0 0.0 0.0 -0.0 0.0 0.0 1.21343e-13 -4.44644e-13 9.7288e-15 69.1084 8.08619 -7.99168 -9.96307 -4.45042 17.3667 -1.19301 32.8195 5.0547 -3.10771e-09 2.99326e-09 -9.21648e-10 -5.39142e-09 5.10732e-09 -1.49697e-09 -3.1077e-09 2.99327e-09 -9.21664e-10 7.73091 5.47488 0.417314 -3.10771e-09 2.99327e-09 -9.21653e-10 2.90554 0.965183 0.102902 -3.1077e-09 2.99327e-09 -9.21653e-10 10.2786 0.731801 0.0259123 -3.10771e-09 2.99327e-09 -9.21647e-10 2.22167 -0.733487 -0.20892 1.21257e-13 -4.44645e-13 9.48381e-15 -71.6623 14.0772 9.51159 7.5579 -2.9701 -13.1164 0.676409 25.4718 -3.77433 1.90326e-09 -6.60397e-10 -3.48425e-09 3.19955e-09 -1.21027e-09 -6.06122e-09 1.90326e-09 -6.60404e-10 -3.48424e-09 -7.73091 5.47488 -0.417314 1.90327e-09 -6.60398e-10 -3.48425e-09 -2.90554 0.965183 -0.102902 1.90326e-09 -6.60401e-10 -3.48425e-09 -10.2786 0.731801 -0.0259123 1.90327e-09 -6.60398e-10 -3.48426e-09 -2.22167 -0.733487 0.20892 -2.03217e-16 0.0 -3.88251e-19 2.34304 -4.27392 19.3425 0.0252979 -0.770123 0.24247 -4.31197 -4.22517 -21.3004 2.03217e-16 0.0 3.88251e-19 2.10569 -8.51465 -34.1007 0.00243609 12.1372 -0.0725918 8.19905 -12.8716 42.3297
-1.62102 82.2392 48.5145 -9.907 2.7457 7.7583 4.08202 -7.71158 1.43535 -1.33736 -10.439 -0.0134222 -6.71627 14.9155 -13.2769 13.0577 -9.99147 -24.6028 -0.0 0.0 0.0 -0.0 0.0 0.0 1.46937e-13 -5.05708e-13 1.00883e-14 84.5556 9.96199 -9.77026 -11.7809 -5.29613 21.1865 -2.43235 39.772 6.71772 -3.24415e-09 3.2499e-09 -9.39692e-10 -5.62721e-09 5.5422e-09 -1.51822e-09 -3.24415e-09 3.2499e-09 -9.39711e-10 7.73091 5.47488 0.417314 -3.24416e-09 3.24991e-09 -9.39698e-10 2.90554 0.965183 0.102902 -3.24415e-09 3.2499e-09 -9.39697e-10 10.2786 0.731801 0.0259123 -3.24415e-09 3.2499e-09 -9.39692e-10 2.22167 -0.733487 -0.20892 1.46876e-13 -5.05709e-13 9.83984e-15 -88.0182 17.1013 11.7801 9.03714 -3.57642 -16.0078 1.34078 30.966 -4.83762 2.37376e-09 -6.67182e-10 -3.80536e-09 4.0038e-09 -1.22962e-09 -6.62206e-09 2.37375e-09 -6.6719e-10 -3.80535e-09 -7.73091 5.47488 -0.417314 2.37376e-09 -6.67182e-10 -3.80536e-09 -2.90554 0.965183 -0.102902 2.37375e-09 -6.67185e-10 -3.80536e-09 -10.2786 0.731801 -0.0259123 2.37377e-09 -6.67183e-10 -3.80537e-09 -2.22167 -0.733487 0.20892 -2.03217e-16 0.0 -3.88251e-19 3.66021 -4.69585 23.5968 0.0305666 -0.49462 0.309445 -5.97701 -5.77388 -26.0877 2.03217e-16 0.0 3.88251e-19 3.69629 -7.56771 -41.6285 0.00981738 11.56 -0.00451844 11.5994 -12.7852 51.8098
-1.59341 82.2277 48.543 -9.7848 2.8022 7.8739 4.54357 -8.50073 1.51645 -1.29512 -11.0505 -0.00247982 -6.90927 15.9286 -14.296 13.6784 -10.5712 -26.4131 -0.0 0.0 0.0 -0.0 0.0 0.0 1.04553e-13 -4.59434e-13 4.61553e-15 90.6429 10.9783 -10.4371 -12.4436 -5.59697 22.6528 -3.00778 42.1584 7.40177 -2.66533e-09 2.50627e-09 -5.09971e-10 -4.61538e-09 4.26359e-09 -7.9365e-10 -2.66533e-09 2.50627e-09 -5.0999e-10 7.73091 5.47488 0.417314 -2.66533e-09 2.50627e-09 -5.09977e-10 2.90554 0.965183 0.102902 -2.66533e-09 2.50627e-09 -5.09976e-10 10.2786 0.731801 0.0259123 -2.66533e-09 2.50627e-09 -5.0997e-10 2.22167 -0.733487 -0.20892 1.04511e-13 -4.59436e-13 4.35346e-15 -94.5073 18.3768 12.7206 9.60857 -3.81195 -17.1591 1.65505 33.0028 -5.27652 2.29566e-09 -3.44091e-10 -3.01195e-09 3.88806e-09 -6.59883e-10 -5.24946e-09 2.29566e-09 -3.44098e-10 -3.01194e-09 -7.73091 5.47488 -0.417314 2.29566e-09 -3.44091e-10 -3.01195e-09 -2.90554 0.965183 -0.102902 2.29566e-09 -3.44094e-10 -3.01195e-09 -10.2786 0.731801 -0.0259123 2.29567e-09 -3.44091e-10 -3.01196e-09 -2.22167 -0.733487 0.20892 -2.03217e-16 0.0 -3.88251e-19 4.11645 -4.89651 25.2826 0.032095 -0.409617 0.334952 -6.72174 -6.3673 -28.029 2.03217e-16 0.0 3.88251e-19 4.25587 -7.23441 -44.6443 0.0125868 11.3344 0.0212054 12.9721 -12.4463 55.5249
-1.54433 82.206 48.5994 -9.5639 2.9008 8.1142 4.25862 -8.80165 1.45967 -1.22238 -10.7861 -0.00835371 -6.87453 15.8588 -14.2061 13.6554 -10.5528 -26.2535 -0.0 0.0 0.0 -0.0 0.0 0.0 1.41196e-14 -3.3678e-13 -4.88265e-15 89.9825 11.3942 -10.2951 -12.3413 -5.54371 22.4313 -2.83542 41.3103 7.17055 -1.57837e-09 1.05444e-09 2.34521e-10 -2.71733e-09 1.77192e-09 4.55022e-10 -1.57836e-09 1.05444e-09 2.34504e-10 7.73091 5.47488 0.417314 -1.57837e-09 1.05445e-09 2.34517e-10 2.90554 0.965183 0.102902 -1.57836e-09 1.05445e-09 2.34519e-10 10.2786 0.731801 0.0259123 -1.57838e-09 1.05444e-09 2.34525e-10 2.22167 -0.733487 -0.20892 1.40902e-14 -3.36781e-13 -5.16529e-15 -93.8193 18.4377 12.6603 9.56326 -3.7961 -17.0645 1.59593 32.5811 -5.18678 1.82405e-09 2.10596e-10 -1.42864e-09 3.11217e-09 3.23625e-10 -2.50646e-09 1.82405e-09 2.10592e-10 -1.42863e-09 -7.73091 5.47488 -0.417314 1.82405e-09 2.10596e-10 -1.42865e-09 -2.90554 0.965183 -0.102902 1.82405e-09 2.10594e-10 -1.42864e-09 -10.2786 0.731801 -0.0259123 1.82406e-09 2.10596e-10 -1.42865e-09 -2.22167 -0.733487 0.20892 -2.03217e-16 0.0 -3.88251e-19 3.9222 -4.96878 25.1307 0.0312774 -0.46054 0.330841 -6.67259 -6.36436 -27.9158 2.03217e-16 0.0 3.88251e-19 4.00526 -7.39206 -44.4525 0.0113601 11.3599 0.0168403 12.7874 -12.4477 55.1915
